<mxfile host="app.diagrams.net" modified="2024-02-16T11:05:43.836Z" agent="Mozilla/5.0 (Windows NT 10.0; Win64; x64) AppleWebKit/537.36 (KHTML, like Gecko) Chrome/121.0.0.0 Safari/537.36" etag="AKzeVEyT1rmG1046Ho6B" version="23.1.5" type="device">
  <diagram id="C5RBs43oDa-KdzZeNtuy" name="Page-1">
    <mxGraphModel dx="1299" dy="770" grid="1" gridSize="10" guides="1" tooltips="1" connect="1" arrows="1" fold="1" page="1" pageScale="1" pageWidth="827" pageHeight="1169" math="0" shadow="0">
      <root>
        <mxCell id="WIyWlLk6GJQsqaUBKTNV-0" />
        <mxCell id="WIyWlLk6GJQsqaUBKTNV-1" parent="WIyWlLk6GJQsqaUBKTNV-0" />
        <mxCell id="lq36NYKIBFTVrX8ykOkN-0" value="Item" style="swimlane;fontStyle=1;align=center;verticalAlign=top;childLayout=stackLayout;horizontal=1;startSize=26;horizontalStack=0;resizeParent=1;resizeParentMax=0;resizeLast=0;collapsible=1;marginBottom=0;whiteSpace=wrap;html=1;" parent="WIyWlLk6GJQsqaUBKTNV-1" vertex="1">
          <mxGeometry x="-60" y="190" width="210" height="436" as="geometry" />
        </mxCell>
        <mxCell id="lq36NYKIBFTVrX8ykOkN-1" value="&lt;u&gt;- _counter: int&lt;/u&gt;" style="text;strokeColor=none;fillColor=none;align=left;verticalAlign=top;spacingLeft=4;spacingRight=4;overflow=hidden;rotatable=0;points=[[0,0.5],[1,0.5]];portConstraint=eastwest;whiteSpace=wrap;html=1;" parent="lq36NYKIBFTVrX8ykOkN-0" vertex="1">
          <mxGeometry y="26" width="210" height="26" as="geometry" />
        </mxCell>
        <mxCell id="lq36NYKIBFTVrX8ykOkN-28" value="- _name: string" style="text;strokeColor=none;fillColor=none;align=left;verticalAlign=top;spacingLeft=4;spacingRight=4;overflow=hidden;rotatable=0;points=[[0,0.5],[1,0.5]];portConstraint=eastwest;whiteSpace=wrap;html=1;" parent="lq36NYKIBFTVrX8ykOkN-0" vertex="1">
          <mxGeometry y="52" width="210" height="26" as="geometry" />
        </mxCell>
        <mxCell id="lq36NYKIBFTVrX8ykOkN-27" value="- _info: string" style="text;strokeColor=none;fillColor=none;align=left;verticalAlign=top;spacingLeft=4;spacingRight=4;overflow=hidden;rotatable=0;points=[[0,0.5],[1,0.5]];portConstraint=eastwest;whiteSpace=wrap;html=1;" parent="lq36NYKIBFTVrX8ykOkN-0" vertex="1">
          <mxGeometry y="78" width="210" height="26" as="geometry" />
        </mxCell>
        <mxCell id="lq36NYKIBFTVrX8ykOkN-29" value="- _cost: double" style="text;strokeColor=none;fillColor=none;align=left;verticalAlign=top;spacingLeft=4;spacingRight=4;overflow=hidden;rotatable=0;points=[[0,0.5],[1,0.5]];portConstraint=eastwest;whiteSpace=wrap;html=1;" parent="lq36NYKIBFTVrX8ykOkN-0" vertex="1">
          <mxGeometry y="104" width="210" height="26" as="geometry" />
        </mxCell>
        <mxCell id="LBAPfOwPlszBLF5aJ3Cb-7" value="&lt;u&gt;-_id: int&lt;/u&gt;" style="text;strokeColor=none;fillColor=none;align=left;verticalAlign=top;spacingLeft=4;spacingRight=4;overflow=hidden;rotatable=0;points=[[0,0.5],[1,0.5]];portConstraint=eastwest;whiteSpace=wrap;html=1;" vertex="1" parent="lq36NYKIBFTVrX8ykOkN-0">
          <mxGeometry y="130" width="210" height="26" as="geometry" />
        </mxCell>
        <mxCell id="lq36NYKIBFTVrX8ykOkN-2" value="" style="line;strokeWidth=1;fillColor=none;align=left;verticalAlign=middle;spacingTop=-1;spacingLeft=3;spacingRight=3;rotatable=0;labelPosition=right;points=[];portConstraint=eastwest;strokeColor=inherit;" parent="lq36NYKIBFTVrX8ykOkN-0" vertex="1">
          <mxGeometry y="156" width="210" height="20" as="geometry" />
        </mxCell>
        <mxCell id="lq36NYKIBFTVrX8ykOkN-30" value="+ Category: Category" style="text;strokeColor=none;fillColor=none;align=left;verticalAlign=top;spacingLeft=4;spacingRight=4;overflow=hidden;rotatable=0;points=[[0,0.5],[1,0.5]];portConstraint=eastwest;whiteSpace=wrap;html=1;" parent="lq36NYKIBFTVrX8ykOkN-0" vertex="1">
          <mxGeometry y="176" width="210" height="26" as="geometry" />
        </mxCell>
        <mxCell id="lq36NYKIBFTVrX8ykOkN-34" value="+ Item(string, string, int, Category)" style="text;strokeColor=none;fillColor=none;align=left;verticalAlign=top;spacingLeft=4;spacingRight=4;overflow=hidden;rotatable=0;points=[[0,0.5],[1,0.5]];portConstraint=eastwest;whiteSpace=wrap;html=1;" parent="lq36NYKIBFTVrX8ykOkN-0" vertex="1">
          <mxGeometry y="202" width="210" height="26" as="geometry" />
        </mxCell>
        <mxCell id="lq36NYKIBFTVrX8ykOkN-36" value="+ Item()" style="text;strokeColor=none;fillColor=none;align=left;verticalAlign=top;spacingLeft=4;spacingRight=4;overflow=hidden;rotatable=0;points=[[0,0.5],[1,0.5]];portConstraint=eastwest;whiteSpace=wrap;html=1;" parent="lq36NYKIBFTVrX8ykOkN-0" vertex="1">
          <mxGeometry y="228" width="210" height="26" as="geometry" />
        </mxCell>
        <mxCell id="lq36NYKIBFTVrX8ykOkN-3" value="+ Id(get;): int" style="text;strokeColor=none;fillColor=none;align=left;verticalAlign=top;spacingLeft=4;spacingRight=4;overflow=hidden;rotatable=0;points=[[0,0.5],[1,0.5]];portConstraint=eastwest;whiteSpace=wrap;html=1;" parent="lq36NYKIBFTVrX8ykOkN-0" vertex="1">
          <mxGeometry y="254" width="210" height="26" as="geometry" />
        </mxCell>
        <mxCell id="lq36NYKIBFTVrX8ykOkN-31" value="+ Name(get; set;): string" style="text;strokeColor=none;fillColor=none;align=left;verticalAlign=top;spacingLeft=4;spacingRight=4;overflow=hidden;rotatable=0;points=[[0,0.5],[1,0.5]];portConstraint=eastwest;whiteSpace=wrap;html=1;" parent="lq36NYKIBFTVrX8ykOkN-0" vertex="1">
          <mxGeometry y="280" width="210" height="26" as="geometry" />
        </mxCell>
        <mxCell id="lq36NYKIBFTVrX8ykOkN-32" value="+ Info(get; set;): string" style="text;strokeColor=none;fillColor=none;align=left;verticalAlign=top;spacingLeft=4;spacingRight=4;overflow=hidden;rotatable=0;points=[[0,0.5],[1,0.5]];portConstraint=eastwest;whiteSpace=wrap;html=1;" parent="lq36NYKIBFTVrX8ykOkN-0" vertex="1">
          <mxGeometry y="306" width="210" height="26" as="geometry" />
        </mxCell>
        <mxCell id="LBAPfOwPlszBLF5aJ3Cb-8" value="+Counter(get; set;): int" style="text;strokeColor=none;fillColor=none;align=left;verticalAlign=top;spacingLeft=4;spacingRight=4;overflow=hidden;rotatable=0;points=[[0,0.5],[1,0.5]];portConstraint=eastwest;whiteSpace=wrap;html=1;" vertex="1" parent="lq36NYKIBFTVrX8ykOkN-0">
          <mxGeometry y="332" width="210" height="26" as="geometry" />
        </mxCell>
        <mxCell id="LBAPfOwPlszBLF5aJ3Cb-9" value="+ToString(): override string" style="text;strokeColor=none;fillColor=none;align=left;verticalAlign=top;spacingLeft=4;spacingRight=4;overflow=hidden;rotatable=0;points=[[0,0.5],[1,0.5]];portConstraint=eastwest;whiteSpace=wrap;html=1;" vertex="1" parent="lq36NYKIBFTVrX8ykOkN-0">
          <mxGeometry y="358" width="210" height="26" as="geometry" />
        </mxCell>
        <mxCell id="LBAPfOwPlszBLF5aJ3Cb-10" value="+Clone(): object" style="text;strokeColor=none;fillColor=none;align=left;verticalAlign=top;spacingLeft=4;spacingRight=4;overflow=hidden;rotatable=0;points=[[0,0.5],[1,0.5]];portConstraint=eastwest;whiteSpace=wrap;html=1;" vertex="1" parent="lq36NYKIBFTVrX8ykOkN-0">
          <mxGeometry y="384" width="210" height="26" as="geometry" />
        </mxCell>
        <mxCell id="lq36NYKIBFTVrX8ykOkN-33" value="+ Cost(get; set;): double" style="text;strokeColor=none;fillColor=none;align=left;verticalAlign=top;spacingLeft=4;spacingRight=4;overflow=hidden;rotatable=0;points=[[0,0.5],[1,0.5]];portConstraint=eastwest;whiteSpace=wrap;html=1;" parent="lq36NYKIBFTVrX8ykOkN-0" vertex="1">
          <mxGeometry y="410" width="210" height="26" as="geometry" />
        </mxCell>
        <mxCell id="lq36NYKIBFTVrX8ykOkN-4" value="Store" style="swimlane;fontStyle=1;align=center;verticalAlign=top;childLayout=stackLayout;horizontal=1;startSize=26;horizontalStack=0;resizeParent=1;resizeParentMax=0;resizeLast=0;collapsible=1;marginBottom=0;whiteSpace=wrap;html=1;" parent="WIyWlLk6GJQsqaUBKTNV-1" vertex="1">
          <mxGeometry x="270" y="34" width="240" height="164" as="geometry" />
        </mxCell>
        <mxCell id="lq36NYKIBFTVrX8ykOkN-5" value="- _items: List&amp;lt;Item&amp;gt;" style="text;strokeColor=none;fillColor=none;align=left;verticalAlign=top;spacingLeft=4;spacingRight=4;overflow=hidden;rotatable=0;points=[[0,0.5],[1,0.5]];portConstraint=eastwest;whiteSpace=wrap;html=1;" parent="lq36NYKIBFTVrX8ykOkN-4" vertex="1">
          <mxGeometry y="26" width="240" height="26" as="geometry" />
        </mxCell>
        <mxCell id="lq36NYKIBFTVrX8ykOkN-24" value="- _customers: List&amp;lt;Customer&amp;gt;" style="text;strokeColor=none;fillColor=none;align=left;verticalAlign=top;spacingLeft=4;spacingRight=4;overflow=hidden;rotatable=0;points=[[0,0.5],[1,0.5]];portConstraint=eastwest;whiteSpace=wrap;html=1;" parent="lq36NYKIBFTVrX8ykOkN-4" vertex="1">
          <mxGeometry y="52" width="240" height="26" as="geometry" />
        </mxCell>
        <mxCell id="lq36NYKIBFTVrX8ykOkN-6" value="" style="line;strokeWidth=1;fillColor=none;align=left;verticalAlign=middle;spacingTop=-1;spacingLeft=3;spacingRight=3;rotatable=0;labelPosition=right;points=[];portConstraint=eastwest;strokeColor=inherit;" parent="lq36NYKIBFTVrX8ykOkN-4" vertex="1">
          <mxGeometry y="78" width="240" height="8" as="geometry" />
        </mxCell>
        <mxCell id="lq36NYKIBFTVrX8ykOkN-7" value="+ Store()" style="text;strokeColor=none;fillColor=none;align=left;verticalAlign=top;spacingLeft=4;spacingRight=4;overflow=hidden;rotatable=0;points=[[0,0.5],[1,0.5]];portConstraint=eastwest;whiteSpace=wrap;html=1;" parent="lq36NYKIBFTVrX8ykOkN-4" vertex="1">
          <mxGeometry y="86" width="240" height="26" as="geometry" />
        </mxCell>
        <mxCell id="lq36NYKIBFTVrX8ykOkN-26" value="+ Items(get; set;): List&amp;lt;Item&amp;gt;" style="text;strokeColor=none;fillColor=none;align=left;verticalAlign=top;spacingLeft=4;spacingRight=4;overflow=hidden;rotatable=0;points=[[0,0.5],[1,0.5]];portConstraint=eastwest;whiteSpace=wrap;html=1;" parent="lq36NYKIBFTVrX8ykOkN-4" vertex="1">
          <mxGeometry y="112" width="240" height="26" as="geometry" />
        </mxCell>
        <mxCell id="lq36NYKIBFTVrX8ykOkN-25" value="+ Customers(get; set;): List&amp;lt;Cusotmer&amp;gt;" style="text;strokeColor=none;fillColor=none;align=left;verticalAlign=top;spacingLeft=4;spacingRight=4;overflow=hidden;rotatable=0;points=[[0,0.5],[1,0.5]];portConstraint=eastwest;whiteSpace=wrap;html=1;" parent="lq36NYKIBFTVrX8ykOkN-4" vertex="1">
          <mxGeometry y="138" width="240" height="26" as="geometry" />
        </mxCell>
        <mxCell id="lq36NYKIBFTVrX8ykOkN-8" value="Customer" style="swimlane;fontStyle=1;align=center;verticalAlign=top;childLayout=stackLayout;horizontal=1;startSize=26;horizontalStack=0;resizeParent=1;resizeParentMax=0;resizeLast=0;collapsible=1;marginBottom=0;whiteSpace=wrap;html=1;" parent="WIyWlLk6GJQsqaUBKTNV-1" vertex="1">
          <mxGeometry x="520" y="160" width="180" height="450" as="geometry" />
        </mxCell>
        <mxCell id="lq36NYKIBFTVrX8ykOkN-37" value="&lt;u&gt;- _idCounter: int&lt;/u&gt;" style="text;strokeColor=none;fillColor=none;align=left;verticalAlign=top;spacingLeft=4;spacingRight=4;overflow=hidden;rotatable=0;points=[[0,0.5],[1,0.5]];portConstraint=eastwest;whiteSpace=wrap;html=1;" parent="lq36NYKIBFTVrX8ykOkN-8" vertex="1">
          <mxGeometry y="26" width="180" height="26" as="geometry" />
        </mxCell>
        <mxCell id="lq36NYKIBFTVrX8ykOkN-38" value="- _fullname: string" style="text;strokeColor=none;fillColor=none;align=left;verticalAlign=top;spacingLeft=4;spacingRight=4;overflow=hidden;rotatable=0;points=[[0,0.5],[1,0.5]];portConstraint=eastwest;whiteSpace=wrap;html=1;" parent="lq36NYKIBFTVrX8ykOkN-8" vertex="1">
          <mxGeometry y="52" width="180" height="26" as="geometry" />
        </mxCell>
        <mxCell id="lq36NYKIBFTVrX8ykOkN-9" value="- _addtess: Address" style="text;strokeColor=none;fillColor=none;align=left;verticalAlign=top;spacingLeft=4;spacingRight=4;overflow=hidden;rotatable=0;points=[[0,0.5],[1,0.5]];portConstraint=eastwest;whiteSpace=wrap;html=1;" parent="lq36NYKIBFTVrX8ykOkN-8" vertex="1">
          <mxGeometry y="78" width="180" height="26" as="geometry" />
        </mxCell>
        <mxCell id="H9WaalQBfB--Xo07i97--9" value="- _cart: Cart" style="text;strokeColor=none;fillColor=none;align=left;verticalAlign=top;spacingLeft=4;spacingRight=4;overflow=hidden;rotatable=0;points=[[0,0.5],[1,0.5]];portConstraint=eastwest;whiteSpace=wrap;html=1;" parent="lq36NYKIBFTVrX8ykOkN-8" vertex="1">
          <mxGeometry y="104" width="180" height="26" as="geometry" />
        </mxCell>
        <mxCell id="H9WaalQBfB--Xo07i97--10" value="- _orders: List&amp;lt;Order&amp;gt;" style="text;strokeColor=none;fillColor=none;align=left;verticalAlign=top;spacingLeft=4;spacingRight=4;overflow=hidden;rotatable=0;points=[[0,0.5],[1,0.5]];portConstraint=eastwest;whiteSpace=wrap;html=1;" parent="lq36NYKIBFTVrX8ykOkN-8" vertex="1">
          <mxGeometry y="130" width="180" height="26" as="geometry" />
        </mxCell>
        <mxCell id="LBAPfOwPlszBLF5aJ3Cb-2" value="-_id: int" style="text;strokeColor=none;fillColor=none;align=left;verticalAlign=top;spacingLeft=4;spacingRight=4;overflow=hidden;rotatable=0;points=[[0,0.5],[1,0.5]];portConstraint=eastwest;whiteSpace=wrap;html=1;" vertex="1" parent="lq36NYKIBFTVrX8ykOkN-8">
          <mxGeometry y="156" width="180" height="26" as="geometry" />
        </mxCell>
        <mxCell id="lq36NYKIBFTVrX8ykOkN-10" value="" style="line;strokeWidth=1;fillColor=none;align=left;verticalAlign=middle;spacingTop=-1;spacingLeft=3;spacingRight=3;rotatable=0;labelPosition=right;points=[];portConstraint=eastwest;strokeColor=inherit;" parent="lq36NYKIBFTVrX8ykOkN-8" vertex="1">
          <mxGeometry y="182" width="180" height="8" as="geometry" />
        </mxCell>
        <mxCell id="lq36NYKIBFTVrX8ykOkN-42" value="+ Customer(string,Address)" style="text;strokeColor=none;fillColor=none;align=left;verticalAlign=top;spacingLeft=4;spacingRight=4;overflow=hidden;rotatable=0;points=[[0,0.5],[1,0.5]];portConstraint=eastwest;whiteSpace=wrap;html=1;" parent="lq36NYKIBFTVrX8ykOkN-8" vertex="1">
          <mxGeometry y="190" width="180" height="26" as="geometry" />
        </mxCell>
        <mxCell id="lq36NYKIBFTVrX8ykOkN-41" value="+ Customer()" style="text;strokeColor=none;fillColor=none;align=left;verticalAlign=top;spacingLeft=4;spacingRight=4;overflow=hidden;rotatable=0;points=[[0,0.5],[1,0.5]];portConstraint=eastwest;whiteSpace=wrap;html=1;" parent="lq36NYKIBFTVrX8ykOkN-8" vertex="1">
          <mxGeometry y="216" width="180" height="26" as="geometry" />
        </mxCell>
        <mxCell id="lq36NYKIBFTVrX8ykOkN-39" value="+ Id(get;): int" style="text;strokeColor=none;fillColor=none;align=left;verticalAlign=top;spacingLeft=4;spacingRight=4;overflow=hidden;rotatable=0;points=[[0,0.5],[1,0.5]];portConstraint=eastwest;whiteSpace=wrap;html=1;" parent="lq36NYKIBFTVrX8ykOkN-8" vertex="1">
          <mxGeometry y="242" width="180" height="26" as="geometry" />
        </mxCell>
        <mxCell id="lq36NYKIBFTVrX8ykOkN-40" value="+ Cart(get; set;): Cart" style="text;strokeColor=none;fillColor=none;align=left;verticalAlign=top;spacingLeft=4;spacingRight=4;overflow=hidden;rotatable=0;points=[[0,0.5],[1,0.5]];portConstraint=eastwest;whiteSpace=wrap;html=1;" parent="lq36NYKIBFTVrX8ykOkN-8" vertex="1">
          <mxGeometry y="268" width="180" height="26" as="geometry" />
        </mxCell>
        <mxCell id="H9WaalQBfB--Xo07i97--12" value="+ Orders(get; set;): List&amp;lt;Order&amp;gt;" style="text;strokeColor=none;fillColor=none;align=left;verticalAlign=top;spacingLeft=4;spacingRight=4;overflow=hidden;rotatable=0;points=[[0,0.5],[1,0.5]];portConstraint=eastwest;whiteSpace=wrap;html=1;" parent="lq36NYKIBFTVrX8ykOkN-8" vertex="1">
          <mxGeometry y="294" width="180" height="26" as="geometry" />
        </mxCell>
        <mxCell id="H9WaalQBfB--Xo07i97--11" value="+ Fullname(get; set;): string" style="text;strokeColor=none;fillColor=none;align=left;verticalAlign=top;spacingLeft=4;spacingRight=4;overflow=hidden;rotatable=0;points=[[0,0.5],[1,0.5]];portConstraint=eastwest;whiteSpace=wrap;html=1;" parent="lq36NYKIBFTVrX8ykOkN-8" vertex="1">
          <mxGeometry y="320" width="180" height="26" as="geometry" />
        </mxCell>
        <mxCell id="lq36NYKIBFTVrX8ykOkN-11" value="+ Address(get; set;): Address" style="text;strokeColor=none;fillColor=none;align=left;verticalAlign=top;spacingLeft=4;spacingRight=4;overflow=hidden;rotatable=0;points=[[0,0.5],[1,0.5]];portConstraint=eastwest;whiteSpace=wrap;html=1;" parent="lq36NYKIBFTVrX8ykOkN-8" vertex="1">
          <mxGeometry y="346" width="180" height="26" as="geometry" />
        </mxCell>
        <mxCell id="LBAPfOwPlszBLF5aJ3Cb-3" value="+IdCounter(get; set;): int" style="text;strokeColor=none;fillColor=none;align=left;verticalAlign=top;spacingLeft=4;spacingRight=4;overflow=hidden;rotatable=0;points=[[0,0.5],[1,0.5]];portConstraint=eastwest;whiteSpace=wrap;html=1;" vertex="1" parent="lq36NYKIBFTVrX8ykOkN-8">
          <mxGeometry y="372" width="180" height="26" as="geometry" />
        </mxCell>
        <mxCell id="LBAPfOwPlszBLF5aJ3Cb-5" value="+ToString(): override string" style="text;strokeColor=none;fillColor=none;align=left;verticalAlign=top;spacingLeft=4;spacingRight=4;overflow=hidden;rotatable=0;points=[[0,0.5],[1,0.5]];portConstraint=eastwest;whiteSpace=wrap;html=1;" vertex="1" parent="lq36NYKIBFTVrX8ykOkN-8">
          <mxGeometry y="398" width="180" height="26" as="geometry" />
        </mxCell>
        <mxCell id="LBAPfOwPlszBLF5aJ3Cb-6" value="+Clone() object" style="text;strokeColor=none;fillColor=none;align=left;verticalAlign=top;spacingLeft=4;spacingRight=4;overflow=hidden;rotatable=0;points=[[0,0.5],[1,0.5]];portConstraint=eastwest;whiteSpace=wrap;html=1;" vertex="1" parent="lq36NYKIBFTVrX8ykOkN-8">
          <mxGeometry y="424" width="180" height="26" as="geometry" />
        </mxCell>
        <mxCell id="lq36NYKIBFTVrX8ykOkN-12" value="&amp;lt;&amp;lt;enumeration&amp;gt;&amp;gt; &lt;br&gt;Category" style="swimlane;fontStyle=1;align=center;verticalAlign=top;childLayout=stackLayout;horizontal=1;startSize=40;horizontalStack=0;resizeParent=1;resizeParentMax=0;resizeLast=0;collapsible=1;marginBottom=0;whiteSpace=wrap;html=1;" parent="WIyWlLk6GJQsqaUBKTNV-1" vertex="1">
          <mxGeometry x="-70" y="710" width="160" height="150" as="geometry" />
        </mxCell>
        <mxCell id="lq36NYKIBFTVrX8ykOkN-15" value="Shoes&lt;br&gt;Accessories&lt;br&gt;Electronics&lt;br&gt;Furniture&lt;br&gt;Jewelry&lt;br&gt;Appliances&lt;br&gt;Sport" style="text;strokeColor=none;fillColor=none;align=left;verticalAlign=top;spacingLeft=4;spacingRight=4;overflow=hidden;rotatable=0;points=[[0,0.5],[1,0.5]];portConstraint=eastwest;whiteSpace=wrap;html=1;" parent="lq36NYKIBFTVrX8ykOkN-12" vertex="1">
          <mxGeometry y="40" width="160" height="110" as="geometry" />
        </mxCell>
        <mxCell id="lq36NYKIBFTVrX8ykOkN-16" value="Address" style="swimlane;fontStyle=1;align=center;verticalAlign=top;childLayout=stackLayout;horizontal=1;startSize=26;horizontalStack=0;resizeParent=1;resizeParentMax=0;resizeLast=0;collapsible=1;marginBottom=0;whiteSpace=wrap;html=1;" parent="WIyWlLk6GJQsqaUBKTNV-1" vertex="1">
          <mxGeometry x="485" y="660" width="270" height="428" as="geometry" />
        </mxCell>
        <mxCell id="lq36NYKIBFTVrX8ykOkN-17" value="- _index: int" style="text;strokeColor=none;fillColor=none;align=left;verticalAlign=top;spacingLeft=4;spacingRight=4;overflow=hidden;rotatable=0;points=[[0,0.5],[1,0.5]];portConstraint=eastwest;whiteSpace=wrap;html=1;" parent="lq36NYKIBFTVrX8ykOkN-16" vertex="1">
          <mxGeometry y="26" width="270" height="26" as="geometry" />
        </mxCell>
        <mxCell id="lq36NYKIBFTVrX8ykOkN-43" value="- _country: string" style="text;strokeColor=none;fillColor=none;align=left;verticalAlign=top;spacingLeft=4;spacingRight=4;overflow=hidden;rotatable=0;points=[[0,0.5],[1,0.5]];portConstraint=eastwest;whiteSpace=wrap;html=1;" parent="lq36NYKIBFTVrX8ykOkN-16" vertex="1">
          <mxGeometry y="52" width="270" height="26" as="geometry" />
        </mxCell>
        <mxCell id="lq36NYKIBFTVrX8ykOkN-44" value="- _city: string" style="text;strokeColor=none;fillColor=none;align=left;verticalAlign=top;spacingLeft=4;spacingRight=4;overflow=hidden;rotatable=0;points=[[0,0.5],[1,0.5]];portConstraint=eastwest;whiteSpace=wrap;html=1;" parent="lq36NYKIBFTVrX8ykOkN-16" vertex="1">
          <mxGeometry y="78" width="270" height="26" as="geometry" />
        </mxCell>
        <mxCell id="lq36NYKIBFTVrX8ykOkN-45" value="- _street: string" style="text;strokeColor=none;fillColor=none;align=left;verticalAlign=top;spacingLeft=4;spacingRight=4;overflow=hidden;rotatable=0;points=[[0,0.5],[1,0.5]];portConstraint=eastwest;whiteSpace=wrap;html=1;" parent="lq36NYKIBFTVrX8ykOkN-16" vertex="1">
          <mxGeometry y="104" width="270" height="26" as="geometry" />
        </mxCell>
        <mxCell id="lq36NYKIBFTVrX8ykOkN-46" value="- _building: string" style="text;strokeColor=none;fillColor=none;align=left;verticalAlign=top;spacingLeft=4;spacingRight=4;overflow=hidden;rotatable=0;points=[[0,0.5],[1,0.5]];portConstraint=eastwest;whiteSpace=wrap;html=1;" parent="lq36NYKIBFTVrX8ykOkN-16" vertex="1">
          <mxGeometry y="130" width="270" height="26" as="geometry" />
        </mxCell>
        <mxCell id="lq36NYKIBFTVrX8ykOkN-47" value="- _appartment: string" style="text;strokeColor=none;fillColor=none;align=left;verticalAlign=top;spacingLeft=4;spacingRight=4;overflow=hidden;rotatable=0;points=[[0,0.5],[1,0.5]];portConstraint=eastwest;whiteSpace=wrap;html=1;" parent="lq36NYKIBFTVrX8ykOkN-16" vertex="1">
          <mxGeometry y="156" width="270" height="26" as="geometry" />
        </mxCell>
        <mxCell id="lq36NYKIBFTVrX8ykOkN-18" value="" style="line;strokeWidth=1;fillColor=none;align=left;verticalAlign=middle;spacingTop=-1;spacingLeft=3;spacingRight=3;rotatable=0;labelPosition=right;points=[];portConstraint=eastwest;strokeColor=inherit;" parent="lq36NYKIBFTVrX8ykOkN-16" vertex="1">
          <mxGeometry y="182" width="270" height="8" as="geometry" />
        </mxCell>
        <mxCell id="lq36NYKIBFTVrX8ykOkN-49" value="+ Address(int, string, string, string, string, string)" style="text;strokeColor=none;fillColor=none;align=left;verticalAlign=top;spacingLeft=4;spacingRight=4;overflow=hidden;rotatable=0;points=[[0,0.5],[1,0.5]];portConstraint=eastwest;whiteSpace=wrap;html=1;" parent="lq36NYKIBFTVrX8ykOkN-16" vertex="1">
          <mxGeometry y="190" width="270" height="26" as="geometry" />
        </mxCell>
        <mxCell id="lq36NYKIBFTVrX8ykOkN-48" value="+ Address()" style="text;strokeColor=none;fillColor=none;align=left;verticalAlign=top;spacingLeft=4;spacingRight=4;overflow=hidden;rotatable=0;points=[[0,0.5],[1,0.5]];portConstraint=eastwest;whiteSpace=wrap;html=1;" parent="lq36NYKIBFTVrX8ykOkN-16" vertex="1">
          <mxGeometry y="216" width="270" height="26" as="geometry" />
        </mxCell>
        <mxCell id="lq36NYKIBFTVrX8ykOkN-19" value="+ Index(get; set;): int" style="text;strokeColor=none;fillColor=none;align=left;verticalAlign=top;spacingLeft=4;spacingRight=4;overflow=hidden;rotatable=0;points=[[0,0.5],[1,0.5]];portConstraint=eastwest;whiteSpace=wrap;html=1;" parent="lq36NYKIBFTVrX8ykOkN-16" vertex="1">
          <mxGeometry y="242" width="270" height="26" as="geometry" />
        </mxCell>
        <mxCell id="lq36NYKIBFTVrX8ykOkN-50" value="+ Country(get; set;): string" style="text;strokeColor=none;fillColor=none;align=left;verticalAlign=top;spacingLeft=4;spacingRight=4;overflow=hidden;rotatable=0;points=[[0,0.5],[1,0.5]];portConstraint=eastwest;whiteSpace=wrap;html=1;" parent="lq36NYKIBFTVrX8ykOkN-16" vertex="1">
          <mxGeometry y="268" width="270" height="26" as="geometry" />
        </mxCell>
        <mxCell id="lq36NYKIBFTVrX8ykOkN-51" value="+ City(get; set;): string" style="text;strokeColor=none;fillColor=none;align=left;verticalAlign=top;spacingLeft=4;spacingRight=4;overflow=hidden;rotatable=0;points=[[0,0.5],[1,0.5]];portConstraint=eastwest;whiteSpace=wrap;html=1;" parent="lq36NYKIBFTVrX8ykOkN-16" vertex="1">
          <mxGeometry y="294" width="270" height="26" as="geometry" />
        </mxCell>
        <mxCell id="lq36NYKIBFTVrX8ykOkN-53" value="+ Street(get; set;): string" style="text;strokeColor=none;fillColor=none;align=left;verticalAlign=top;spacingLeft=4;spacingRight=4;overflow=hidden;rotatable=0;points=[[0,0.5],[1,0.5]];portConstraint=eastwest;whiteSpace=wrap;html=1;" parent="lq36NYKIBFTVrX8ykOkN-16" vertex="1">
          <mxGeometry y="320" width="270" height="26" as="geometry" />
        </mxCell>
        <mxCell id="lq36NYKIBFTVrX8ykOkN-54" value="+ Building(get; set;): string" style="text;strokeColor=none;fillColor=none;align=left;verticalAlign=top;spacingLeft=4;spacingRight=4;overflow=hidden;rotatable=0;points=[[0,0.5],[1,0.5]];portConstraint=eastwest;whiteSpace=wrap;html=1;" parent="lq36NYKIBFTVrX8ykOkN-16" vertex="1">
          <mxGeometry y="346" width="270" height="26" as="geometry" />
        </mxCell>
        <mxCell id="lq36NYKIBFTVrX8ykOkN-52" value="+ Appartment(get; set;): string&lt;div&gt;&lt;br/&gt;&lt;/div&gt;" style="text;strokeColor=none;fillColor=none;align=left;verticalAlign=top;spacingLeft=4;spacingRight=4;overflow=hidden;rotatable=0;points=[[0,0.5],[1,0.5]];portConstraint=eastwest;whiteSpace=wrap;html=1;" parent="lq36NYKIBFTVrX8ykOkN-16" vertex="1">
          <mxGeometry y="372" width="270" height="28" as="geometry" />
        </mxCell>
        <mxCell id="LBAPfOwPlszBLF5aJ3Cb-0" value="+ ToString(): override string&lt;div&gt;&lt;br&gt;&lt;/div&gt;" style="text;strokeColor=none;fillColor=none;align=left;verticalAlign=top;spacingLeft=4;spacingRight=4;overflow=hidden;rotatable=0;points=[[0,0.5],[1,0.5]];portConstraint=eastwest;whiteSpace=wrap;html=1;" vertex="1" parent="lq36NYKIBFTVrX8ykOkN-16">
          <mxGeometry y="400" width="270" height="28" as="geometry" />
        </mxCell>
        <mxCell id="lq36NYKIBFTVrX8ykOkN-20" value="ValueValidator" style="swimlane;fontStyle=1;align=center;verticalAlign=top;childLayout=stackLayout;horizontal=1;startSize=26;horizontalStack=0;resizeParent=1;resizeParentMax=0;resizeLast=0;collapsible=1;marginBottom=0;whiteSpace=wrap;html=1;" parent="WIyWlLk6GJQsqaUBKTNV-1" vertex="1">
          <mxGeometry y="910" width="340" height="112" as="geometry" />
        </mxCell>
        <mxCell id="lq36NYKIBFTVrX8ykOkN-22" value="" style="line;strokeWidth=1;fillColor=none;align=left;verticalAlign=middle;spacingTop=-1;spacingLeft=3;spacingRight=3;rotatable=0;labelPosition=right;points=[];portConstraint=eastwest;strokeColor=inherit;" parent="lq36NYKIBFTVrX8ykOkN-20" vertex="1">
          <mxGeometry y="26" width="340" height="8" as="geometry" />
        </mxCell>
        <mxCell id="lq36NYKIBFTVrX8ykOkN-23" value="+ AssertStringOnLength(string, int, int, string): void" style="text;strokeColor=none;fillColor=none;align=left;verticalAlign=top;spacingLeft=4;spacingRight=4;overflow=hidden;rotatable=0;points=[[0,0.5],[1,0.5]];portConstraint=eastwest;whiteSpace=wrap;html=1;" parent="lq36NYKIBFTVrX8ykOkN-20" vertex="1">
          <mxGeometry y="34" width="340" height="26" as="geometry" />
        </mxCell>
        <mxCell id="lq36NYKIBFTVrX8ykOkN-55" value="+ AssertIntInRange(int, int, int, string): void" style="text;strokeColor=none;fillColor=none;align=left;verticalAlign=top;spacingLeft=4;spacingRight=4;overflow=hidden;rotatable=0;points=[[0,0.5],[1,0.5]];portConstraint=eastwest;whiteSpace=wrap;html=1;" parent="lq36NYKIBFTVrX8ykOkN-20" vertex="1">
          <mxGeometry y="60" width="340" height="26" as="geometry" />
        </mxCell>
        <mxCell id="lq36NYKIBFTVrX8ykOkN-56" value="+ AssertDoubleInRange(double, double, double, string): void" style="text;strokeColor=none;fillColor=none;align=left;verticalAlign=top;spacingLeft=4;spacingRight=4;overflow=hidden;rotatable=0;points=[[0,0.5],[1,0.5]];portConstraint=eastwest;whiteSpace=wrap;html=1;" parent="lq36NYKIBFTVrX8ykOkN-20" vertex="1">
          <mxGeometry y="86" width="340" height="26" as="geometry" />
        </mxCell>
        <mxCell id="lq36NYKIBFTVrX8ykOkN-68" value="" style="verticalAlign=bottom;html=1;endArrow=open;edgeStyle=orthogonalEdgeStyle;strokeWidth=2;rounded=0;startArrow=diamondThin;startFill=1;endFill=0;entryX=0.5;entryY=0;entryDx=0;entryDy=0;" parent="WIyWlLk6GJQsqaUBKTNV-1" source="lq36NYKIBFTVrX8ykOkN-0" target="lq36NYKIBFTVrX8ykOkN-12" edge="1">
          <mxGeometry relative="1" as="geometry">
            <mxPoint x="200" y="560" as="sourcePoint" />
            <mxPoint x="200" y="650" as="targetPoint" />
          </mxGeometry>
        </mxCell>
        <mxCell id="lq36NYKIBFTVrX8ykOkN-69" value="1" style="resizable=0;html=1;align=left;verticalAlign=top;labelBackgroundColor=none;fontSize=10" parent="lq36NYKIBFTVrX8ykOkN-68" connectable="0" vertex="1">
          <mxGeometry x="-1" relative="1" as="geometry" />
        </mxCell>
        <mxCell id="lq36NYKIBFTVrX8ykOkN-70" value="1" style="resizable=0;html=1;align=right;verticalAlign=top;labelBackgroundColor=none;fontSize=10" parent="lq36NYKIBFTVrX8ykOkN-68" connectable="0" vertex="1">
          <mxGeometry x="1" relative="1" as="geometry">
            <mxPoint x="15" y="-30" as="offset" />
          </mxGeometry>
        </mxCell>
        <mxCell id="lq36NYKIBFTVrX8ykOkN-71" value="" style="verticalAlign=bottom;html=1;endArrow=open;edgeStyle=orthogonalEdgeStyle;strokeWidth=2;rounded=0;startArrow=diamondThin;startFill=1;endFill=0;" parent="WIyWlLk6GJQsqaUBKTNV-1" source="lq36NYKIBFTVrX8ykOkN-8" target="lq36NYKIBFTVrX8ykOkN-16" edge="1">
          <mxGeometry relative="1" as="geometry">
            <mxPoint x="460" y="535" as="sourcePoint" />
            <mxPoint x="460" y="635" as="targetPoint" />
          </mxGeometry>
        </mxCell>
        <mxCell id="lq36NYKIBFTVrX8ykOkN-72" value="1" style="resizable=0;html=1;align=left;verticalAlign=top;labelBackgroundColor=none;fontSize=10" parent="lq36NYKIBFTVrX8ykOkN-71" connectable="0" vertex="1">
          <mxGeometry x="-1" relative="1" as="geometry" />
        </mxCell>
        <mxCell id="lq36NYKIBFTVrX8ykOkN-73" value="1" style="resizable=0;html=1;align=right;verticalAlign=top;labelBackgroundColor=none;fontSize=10" parent="lq36NYKIBFTVrX8ykOkN-71" connectable="0" vertex="1">
          <mxGeometry x="1" relative="1" as="geometry">
            <mxPoint x="15" y="-30" as="offset" />
          </mxGeometry>
        </mxCell>
        <mxCell id="lq36NYKIBFTVrX8ykOkN-74" value="" style="verticalAlign=bottom;html=1;endArrow=open;edgeStyle=orthogonalEdgeStyle;strokeWidth=2;rounded=0;startArrow=diamondThin;startFill=1;endFill=0;entryX=0.5;entryY=0;entryDx=0;entryDy=0;" parent="WIyWlLk6GJQsqaUBKTNV-1" source="lq36NYKIBFTVrX8ykOkN-5" target="lq36NYKIBFTVrX8ykOkN-0" edge="1">
          <mxGeometry relative="1" as="geometry">
            <mxPoint x="135" y="90" as="sourcePoint" />
            <mxPoint x="135" y="190" as="targetPoint" />
          </mxGeometry>
        </mxCell>
        <mxCell id="lq36NYKIBFTVrX8ykOkN-75" value="1" style="resizable=0;html=1;align=left;verticalAlign=top;labelBackgroundColor=none;fontSize=10" parent="lq36NYKIBFTVrX8ykOkN-74" connectable="0" vertex="1">
          <mxGeometry x="-1" relative="1" as="geometry">
            <mxPoint x="-20" as="offset" />
          </mxGeometry>
        </mxCell>
        <mxCell id="lq36NYKIBFTVrX8ykOkN-77" value="*" style="edgeLabel;html=1;align=center;verticalAlign=middle;resizable=0;points=[];fontSize=14;" parent="lq36NYKIBFTVrX8ykOkN-74" vertex="1" connectable="0">
          <mxGeometry x="0.652" y="8" relative="1" as="geometry">
            <mxPoint y="53" as="offset" />
          </mxGeometry>
        </mxCell>
        <mxCell id="lq36NYKIBFTVrX8ykOkN-78" value="" style="verticalAlign=bottom;html=1;endArrow=open;edgeStyle=orthogonalEdgeStyle;strokeWidth=2;rounded=0;startArrow=diamondThin;startFill=1;endFill=0;exitX=1;exitY=0.5;exitDx=0;exitDy=0;" parent="WIyWlLk6GJQsqaUBKTNV-1" source="lq36NYKIBFTVrX8ykOkN-24" target="lq36NYKIBFTVrX8ykOkN-8" edge="1">
          <mxGeometry relative="1" as="geometry">
            <mxPoint x="435" y="250" as="sourcePoint" />
            <mxPoint x="220" y="457" as="targetPoint" />
          </mxGeometry>
        </mxCell>
        <mxCell id="lq36NYKIBFTVrX8ykOkN-79" value="1" style="resizable=0;html=1;align=left;verticalAlign=top;labelBackgroundColor=none;fontSize=10" parent="lq36NYKIBFTVrX8ykOkN-78" connectable="0" vertex="1">
          <mxGeometry x="-1" relative="1" as="geometry">
            <mxPoint x="20" as="offset" />
          </mxGeometry>
        </mxCell>
        <mxCell id="lq36NYKIBFTVrX8ykOkN-80" value="*" style="edgeLabel;html=1;align=center;verticalAlign=middle;resizable=0;points=[];fontSize=14;" parent="lq36NYKIBFTVrX8ykOkN-78" vertex="1" connectable="0">
          <mxGeometry x="0.652" y="8" relative="1" as="geometry">
            <mxPoint x="2" y="31" as="offset" />
          </mxGeometry>
        </mxCell>
        <mxCell id="lq36NYKIBFTVrX8ykOkN-81" value="Use" style="endArrow=open;endSize=12;dashed=1;html=1;rounded=0;" parent="WIyWlLk6GJQsqaUBKTNV-1" source="lq36NYKIBFTVrX8ykOkN-16" target="lq36NYKIBFTVrX8ykOkN-20" edge="1">
          <mxGeometry width="160" relative="1" as="geometry">
            <mxPoint x="250" y="760" as="sourcePoint" />
            <mxPoint x="370" y="820" as="targetPoint" />
          </mxGeometry>
        </mxCell>
        <mxCell id="lq36NYKIBFTVrX8ykOkN-82" value="Use" style="endArrow=open;endSize=12;dashed=1;html=1;rounded=0;exitX=0.867;exitY=0.954;exitDx=0;exitDy=0;exitPerimeter=0;" parent="WIyWlLk6GJQsqaUBKTNV-1" source="lq36NYKIBFTVrX8ykOkN-33" target="lq36NYKIBFTVrX8ykOkN-20" edge="1">
          <mxGeometry width="160" relative="1" as="geometry">
            <mxPoint x="260" y="640" as="sourcePoint" />
            <mxPoint x="326" y="770" as="targetPoint" />
          </mxGeometry>
        </mxCell>
        <mxCell id="lq36NYKIBFTVrX8ykOkN-83" value="Use" style="endArrow=open;endSize=12;dashed=1;html=1;rounded=0;exitX=0.024;exitY=0.108;exitDx=0;exitDy=0;exitPerimeter=0;" parent="WIyWlLk6GJQsqaUBKTNV-1" source="lq36NYKIBFTVrX8ykOkN-11" target="lq36NYKIBFTVrX8ykOkN-20" edge="1">
          <mxGeometry width="160" relative="1" as="geometry">
            <mxPoint x="420" y="530" as="sourcePoint" />
            <mxPoint x="386" y="790" as="targetPoint" />
          </mxGeometry>
        </mxCell>
        <mxCell id="H9WaalQBfB--Xo07i97--0" value="Cart" style="swimlane;fontStyle=1;align=center;verticalAlign=top;childLayout=stackLayout;horizontal=1;startSize=26;horizontalStack=0;resizeParent=1;resizeParentMax=0;resizeLast=0;collapsible=1;marginBottom=0;whiteSpace=wrap;html=1;" parent="WIyWlLk6GJQsqaUBKTNV-1" vertex="1">
          <mxGeometry x="800" y="130" width="240" height="112" as="geometry" />
        </mxCell>
        <mxCell id="H9WaalQBfB--Xo07i97--1" value="- _items: List&amp;lt;Item&amp;gt;" style="text;strokeColor=none;fillColor=none;align=left;verticalAlign=top;spacingLeft=4;spacingRight=4;overflow=hidden;rotatable=0;points=[[0,0.5],[1,0.5]];portConstraint=eastwest;whiteSpace=wrap;html=1;" parent="H9WaalQBfB--Xo07i97--0" vertex="1">
          <mxGeometry y="26" width="240" height="26" as="geometry" />
        </mxCell>
        <mxCell id="H9WaalQBfB--Xo07i97--3" value="" style="line;strokeWidth=1;fillColor=none;align=left;verticalAlign=middle;spacingTop=-1;spacingLeft=3;spacingRight=3;rotatable=0;labelPosition=right;points=[];portConstraint=eastwest;strokeColor=inherit;" parent="H9WaalQBfB--Xo07i97--0" vertex="1">
          <mxGeometry y="52" width="240" height="8" as="geometry" />
        </mxCell>
        <mxCell id="H9WaalQBfB--Xo07i97--5" value="+ Items(get; set;): List&amp;lt;Item&amp;gt;" style="text;strokeColor=none;fillColor=none;align=left;verticalAlign=top;spacingLeft=4;spacingRight=4;overflow=hidden;rotatable=0;points=[[0,0.5],[1,0.5]];portConstraint=eastwest;whiteSpace=wrap;html=1;" parent="H9WaalQBfB--Xo07i97--0" vertex="1">
          <mxGeometry y="60" width="240" height="26" as="geometry" />
        </mxCell>
        <mxCell id="H9WaalQBfB--Xo07i97--6" value="+ Amount(get; set;): double" style="text;strokeColor=none;fillColor=none;align=left;verticalAlign=top;spacingLeft=4;spacingRight=4;overflow=hidden;rotatable=0;points=[[0,0.5],[1,0.5]];portConstraint=eastwest;whiteSpace=wrap;html=1;" parent="H9WaalQBfB--Xo07i97--0" vertex="1">
          <mxGeometry y="86" width="240" height="26" as="geometry" />
        </mxCell>
        <mxCell id="H9WaalQBfB--Xo07i97--7" value="&amp;lt;&amp;lt;enumeration&amp;gt;&amp;gt; &lt;br&gt;OrderStatus" style="swimlane;fontStyle=1;align=center;verticalAlign=top;childLayout=stackLayout;horizontal=1;startSize=40;horizontalStack=0;resizeParent=1;resizeParentMax=0;resizeLast=0;collapsible=1;marginBottom=0;whiteSpace=wrap;html=1;" parent="WIyWlLk6GJQsqaUBKTNV-1" vertex="1">
          <mxGeometry x="925" y="880" width="160" height="150" as="geometry" />
        </mxCell>
        <mxCell id="H9WaalQBfB--Xo07i97--8" value="&lt;div&gt;New&lt;/div&gt;&lt;div&gt;Processing&lt;br&gt;&lt;/div&gt;&lt;div&gt;&lt;div&gt;Assembly&lt;/div&gt;&lt;div&gt;Sent&lt;/div&gt;&lt;div&gt;Delivered&lt;/div&gt;&lt;div&gt;Returned&lt;/div&gt;&lt;div&gt;Abandoned&lt;/div&gt;&lt;/div&gt;" style="text;strokeColor=none;fillColor=none;align=left;verticalAlign=top;spacingLeft=4;spacingRight=4;overflow=hidden;rotatable=0;points=[[0,0.5],[1,0.5]];portConstraint=eastwest;whiteSpace=wrap;html=1;" parent="H9WaalQBfB--Xo07i97--7" vertex="1">
          <mxGeometry y="40" width="160" height="110" as="geometry" />
        </mxCell>
        <mxCell id="H9WaalQBfB--Xo07i97--13" value="" style="verticalAlign=bottom;html=1;endArrow=open;edgeStyle=orthogonalEdgeStyle;strokeWidth=2;rounded=0;startArrow=diamondThin;startFill=1;endFill=0;entryX=0.51;entryY=0.938;entryDx=0;entryDy=0;entryPerimeter=0;" parent="WIyWlLk6GJQsqaUBKTNV-1" source="lq36NYKIBFTVrX8ykOkN-8" target="H9WaalQBfB--Xo07i97--6" edge="1">
          <mxGeometry relative="1" as="geometry">
            <mxPoint x="690" y="440" as="sourcePoint" />
            <mxPoint x="780" y="566" as="targetPoint" />
            <Array as="points">
              <mxPoint x="755" y="403" />
              <mxPoint x="755" y="310" />
              <mxPoint x="922" y="310" />
            </Array>
          </mxGeometry>
        </mxCell>
        <mxCell id="H9WaalQBfB--Xo07i97--14" value="1" style="resizable=0;html=1;align=left;verticalAlign=top;labelBackgroundColor=none;fontSize=10" parent="H9WaalQBfB--Xo07i97--13" connectable="0" vertex="1">
          <mxGeometry x="-1" relative="1" as="geometry" />
        </mxCell>
        <mxCell id="H9WaalQBfB--Xo07i97--15" value="1" style="resizable=0;html=1;align=right;verticalAlign=top;labelBackgroundColor=none;fontSize=10" parent="H9WaalQBfB--Xo07i97--13" connectable="0" vertex="1">
          <mxGeometry x="1" relative="1" as="geometry">
            <mxPoint x="-10" y="20" as="offset" />
          </mxGeometry>
        </mxCell>
        <mxCell id="H9WaalQBfB--Xo07i97--16" value="Order" style="swimlane;fontStyle=1;align=center;verticalAlign=top;childLayout=stackLayout;horizontal=1;startSize=26;horizontalStack=0;resizeParent=1;resizeParentMax=0;resizeLast=0;collapsible=1;marginBottom=0;whiteSpace=wrap;html=1;" parent="WIyWlLk6GJQsqaUBKTNV-1" vertex="1">
          <mxGeometry x="880" y="380" width="250" height="424" as="geometry" />
        </mxCell>
        <mxCell id="H9WaalQBfB--Xo07i97--17" value="- _idr int" style="text;strokeColor=none;fillColor=none;align=left;verticalAlign=top;spacingLeft=4;spacingRight=4;overflow=hidden;rotatable=0;points=[[0,0.5],[1,0.5]];portConstraint=eastwest;whiteSpace=wrap;html=1;" parent="H9WaalQBfB--Xo07i97--16" vertex="1">
          <mxGeometry y="26" width="250" height="26" as="geometry" />
        </mxCell>
        <mxCell id="H9WaalQBfB--Xo07i97--30" value="- _allOrdersCount: int" style="text;strokeColor=none;fillColor=none;align=left;verticalAlign=top;spacingLeft=4;spacingRight=4;overflow=hidden;rotatable=0;points=[[0,0.5],[1,0.5]];portConstraint=eastwest;whiteSpace=wrap;html=1;" parent="H9WaalQBfB--Xo07i97--16" vertex="1">
          <mxGeometry y="52" width="250" height="26" as="geometry" />
        </mxCell>
        <mxCell id="H9WaalQBfB--Xo07i97--18" value="- _date: string" style="text;strokeColor=none;fillColor=none;align=left;verticalAlign=top;spacingLeft=4;spacingRight=4;overflow=hidden;rotatable=0;points=[[0,0.5],[1,0.5]];portConstraint=eastwest;whiteSpace=wrap;html=1;" parent="H9WaalQBfB--Xo07i97--16" vertex="1">
          <mxGeometry y="78" width="250" height="26" as="geometry" />
        </mxCell>
        <mxCell id="H9WaalQBfB--Xo07i97--19" value="- _addtess: Address" style="text;strokeColor=none;fillColor=none;align=left;verticalAlign=top;spacingLeft=4;spacingRight=4;overflow=hidden;rotatable=0;points=[[0,0.5],[1,0.5]];portConstraint=eastwest;whiteSpace=wrap;html=1;" parent="H9WaalQBfB--Xo07i97--16" vertex="1">
          <mxGeometry y="104" width="250" height="26" as="geometry" />
        </mxCell>
        <mxCell id="H9WaalQBfB--Xo07i97--20" value="- _amount: double" style="text;strokeColor=none;fillColor=none;align=left;verticalAlign=top;spacingLeft=4;spacingRight=4;overflow=hidden;rotatable=0;points=[[0,0.5],[1,0.5]];portConstraint=eastwest;whiteSpace=wrap;html=1;" parent="H9WaalQBfB--Xo07i97--16" vertex="1">
          <mxGeometry y="130" width="250" height="26" as="geometry" />
        </mxCell>
        <mxCell id="H9WaalQBfB--Xo07i97--21" value="- _items: List&amp;lt;Item&amp;gt;" style="text;strokeColor=none;fillColor=none;align=left;verticalAlign=top;spacingLeft=4;spacingRight=4;overflow=hidden;rotatable=0;points=[[0,0.5],[1,0.5]];portConstraint=eastwest;whiteSpace=wrap;html=1;" parent="H9WaalQBfB--Xo07i97--16" vertex="1">
          <mxGeometry y="156" width="250" height="26" as="geometry" />
        </mxCell>
        <mxCell id="H9WaalQBfB--Xo07i97--22" value="" style="line;strokeWidth=1;fillColor=none;align=left;verticalAlign=middle;spacingTop=-1;spacingLeft=3;spacingRight=3;rotatable=0;labelPosition=right;points=[];portConstraint=eastwest;strokeColor=inherit;" parent="H9WaalQBfB--Xo07i97--16" vertex="1">
          <mxGeometry y="182" width="250" height="8" as="geometry" />
        </mxCell>
        <mxCell id="H9WaalQBfB--Xo07i97--23" value="+ Order(Address, Cart, OrderStatus, string)" style="text;strokeColor=none;fillColor=none;align=left;verticalAlign=top;spacingLeft=4;spacingRight=4;overflow=hidden;rotatable=0;points=[[0,0.5],[1,0.5]];portConstraint=eastwest;whiteSpace=wrap;html=1;" parent="H9WaalQBfB--Xo07i97--16" vertex="1">
          <mxGeometry y="190" width="250" height="26" as="geometry" />
        </mxCell>
        <mxCell id="H9WaalQBfB--Xo07i97--24" value="+ Order()" style="text;strokeColor=none;fillColor=none;align=left;verticalAlign=top;spacingLeft=4;spacingRight=4;overflow=hidden;rotatable=0;points=[[0,0.5],[1,0.5]];portConstraint=eastwest;whiteSpace=wrap;html=1;" parent="H9WaalQBfB--Xo07i97--16" vertex="1">
          <mxGeometry y="216" width="250" height="26" as="geometry" />
        </mxCell>
        <mxCell id="H9WaalQBfB--Xo07i97--25" value="+ Id(get; set;): int" style="text;strokeColor=none;fillColor=none;align=left;verticalAlign=top;spacingLeft=4;spacingRight=4;overflow=hidden;rotatable=0;points=[[0,0.5],[1,0.5]];portConstraint=eastwest;whiteSpace=wrap;html=1;" parent="H9WaalQBfB--Xo07i97--16" vertex="1">
          <mxGeometry y="242" width="250" height="26" as="geometry" />
        </mxCell>
        <mxCell id="H9WaalQBfB--Xo07i97--26" value="+ Date(get; set;): string" style="text;strokeColor=none;fillColor=none;align=left;verticalAlign=top;spacingLeft=4;spacingRight=4;overflow=hidden;rotatable=0;points=[[0,0.5],[1,0.5]];portConstraint=eastwest;whiteSpace=wrap;html=1;" parent="H9WaalQBfB--Xo07i97--16" vertex="1">
          <mxGeometry y="268" width="250" height="26" as="geometry" />
        </mxCell>
        <mxCell id="H9WaalQBfB--Xo07i97--27" value="+ Items(get; set;): List&amp;lt;Item&amp;gt;" style="text;strokeColor=none;fillColor=none;align=left;verticalAlign=top;spacingLeft=4;spacingRight=4;overflow=hidden;rotatable=0;points=[[0,0.5],[1,0.5]];portConstraint=eastwest;whiteSpace=wrap;html=1;" parent="H9WaalQBfB--Xo07i97--16" vertex="1">
          <mxGeometry y="294" width="250" height="26" as="geometry" />
        </mxCell>
        <mxCell id="H9WaalQBfB--Xo07i97--28" value="+ Amount(get; set;): double" style="text;strokeColor=none;fillColor=none;align=left;verticalAlign=top;spacingLeft=4;spacingRight=4;overflow=hidden;rotatable=0;points=[[0,0.5],[1,0.5]];portConstraint=eastwest;whiteSpace=wrap;html=1;" parent="H9WaalQBfB--Xo07i97--16" vertex="1">
          <mxGeometry y="320" width="250" height="26" as="geometry" />
        </mxCell>
        <mxCell id="LBAPfOwPlszBLF5aJ3Cb-13" value="+OrderStatus(get; set;): OrderStatus" style="text;strokeColor=none;fillColor=none;align=left;verticalAlign=top;spacingLeft=4;spacingRight=4;overflow=hidden;rotatable=0;points=[[0,0.5],[1,0.5]];portConstraint=eastwest;whiteSpace=wrap;html=1;" vertex="1" parent="H9WaalQBfB--Xo07i97--16">
          <mxGeometry y="346" width="250" height="26" as="geometry" />
        </mxCell>
        <mxCell id="LBAPfOwPlszBLF5aJ3Cb-14" value="+AllOrdersCount(get; set;): int" style="text;strokeColor=none;fillColor=none;align=left;verticalAlign=top;spacingLeft=4;spacingRight=4;overflow=hidden;rotatable=0;points=[[0,0.5],[1,0.5]];portConstraint=eastwest;whiteSpace=wrap;html=1;" vertex="1" parent="H9WaalQBfB--Xo07i97--16">
          <mxGeometry y="372" width="250" height="26" as="geometry" />
        </mxCell>
        <mxCell id="H9WaalQBfB--Xo07i97--29" value="+ Address(get; set;): Address" style="text;strokeColor=none;fillColor=none;align=left;verticalAlign=top;spacingLeft=4;spacingRight=4;overflow=hidden;rotatable=0;points=[[0,0.5],[1,0.5]];portConstraint=eastwest;whiteSpace=wrap;html=1;" parent="H9WaalQBfB--Xo07i97--16" vertex="1">
          <mxGeometry y="398" width="250" height="26" as="geometry" />
        </mxCell>
        <mxCell id="H9WaalQBfB--Xo07i97--34" value="" style="verticalAlign=bottom;html=1;endArrow=open;edgeStyle=orthogonalEdgeStyle;strokeWidth=2;rounded=0;startArrow=diamondThin;startFill=0;endFill=0;" parent="WIyWlLk6GJQsqaUBKTNV-1" source="H9WaalQBfB--Xo07i97--0" target="lq36NYKIBFTVrX8ykOkN-0" edge="1">
          <mxGeometry relative="1" as="geometry">
            <mxPoint x="445" y="410" as="sourcePoint" />
            <mxPoint x="230" y="527" as="targetPoint" />
            <Array as="points">
              <mxPoint x="480" y="210" />
              <mxPoint x="480" y="350" />
            </Array>
          </mxGeometry>
        </mxCell>
        <mxCell id="H9WaalQBfB--Xo07i97--35" value="1" style="resizable=0;html=1;align=left;verticalAlign=top;labelBackgroundColor=none;fontSize=10" parent="H9WaalQBfB--Xo07i97--34" connectable="0" vertex="1">
          <mxGeometry x="-1" relative="1" as="geometry">
            <mxPoint x="-20" as="offset" />
          </mxGeometry>
        </mxCell>
        <mxCell id="H9WaalQBfB--Xo07i97--36" value="*" style="edgeLabel;html=1;align=center;verticalAlign=middle;resizable=0;points=[];fontSize=14;" parent="H9WaalQBfB--Xo07i97--34" vertex="1" connectable="0">
          <mxGeometry x="0.652" y="8" relative="1" as="geometry">
            <mxPoint x="-106" y="2" as="offset" />
          </mxGeometry>
        </mxCell>
        <mxCell id="H9WaalQBfB--Xo07i97--37" value="" style="verticalAlign=bottom;html=1;endArrow=open;edgeStyle=orthogonalEdgeStyle;strokeWidth=2;rounded=0;startArrow=diamondThin;startFill=0;endFill=0;entryX=1;entryY=0.5;entryDx=0;entryDy=0;" parent="WIyWlLk6GJQsqaUBKTNV-1" source="H9WaalQBfB--Xo07i97--16" target="lq36NYKIBFTVrX8ykOkN-31" edge="1">
          <mxGeometry relative="1" as="geometry">
            <mxPoint x="1005" y="430" as="sourcePoint" />
            <mxPoint x="180" y="540" as="targetPoint" />
            <Array as="points">
              <mxPoint x="240" y="610" />
              <mxPoint x="240" y="490" />
              <mxPoint x="180" y="490" />
              <mxPoint x="180" y="483" />
            </Array>
          </mxGeometry>
        </mxCell>
        <mxCell id="H9WaalQBfB--Xo07i97--38" value="1" style="resizable=0;html=1;align=left;verticalAlign=top;labelBackgroundColor=none;fontSize=10" parent="H9WaalQBfB--Xo07i97--37" connectable="0" vertex="1">
          <mxGeometry x="-1" relative="1" as="geometry">
            <mxPoint x="-20" as="offset" />
          </mxGeometry>
        </mxCell>
        <mxCell id="H9WaalQBfB--Xo07i97--39" value="*" style="edgeLabel;html=1;align=center;verticalAlign=middle;resizable=0;points=[];fontSize=14;" parent="H9WaalQBfB--Xo07i97--37" vertex="1" connectable="0">
          <mxGeometry x="0.652" y="8" relative="1" as="geometry">
            <mxPoint x="18" y="-129" as="offset" />
          </mxGeometry>
        </mxCell>
        <mxCell id="H9WaalQBfB--Xo07i97--43" value="" style="verticalAlign=bottom;html=1;endArrow=open;edgeStyle=orthogonalEdgeStyle;strokeWidth=2;rounded=0;startArrow=diamondThin;startFill=1;endFill=0;" parent="WIyWlLk6GJQsqaUBKTNV-1" source="lq36NYKIBFTVrX8ykOkN-39" target="H9WaalQBfB--Xo07i97--16" edge="1">
          <mxGeometry relative="1" as="geometry">
            <mxPoint x="717" y="435.5" as="sourcePoint" />
            <mxPoint x="827" y="566.5" as="targetPoint" />
          </mxGeometry>
        </mxCell>
        <mxCell id="H9WaalQBfB--Xo07i97--44" value="1" style="resizable=0;html=1;align=left;verticalAlign=top;labelBackgroundColor=none;fontSize=10" parent="H9WaalQBfB--Xo07i97--43" connectable="0" vertex="1">
          <mxGeometry x="-1" relative="1" as="geometry">
            <mxPoint x="20" as="offset" />
          </mxGeometry>
        </mxCell>
        <mxCell id="H9WaalQBfB--Xo07i97--45" value="*" style="edgeLabel;html=1;align=center;verticalAlign=middle;resizable=0;points=[];fontSize=14;" parent="H9WaalQBfB--Xo07i97--43" vertex="1" connectable="0">
          <mxGeometry x="0.652" y="8" relative="1" as="geometry">
            <mxPoint x="2" y="31" as="offset" />
          </mxGeometry>
        </mxCell>
        <mxCell id="H9WaalQBfB--Xo07i97--46" value="" style="verticalAlign=bottom;html=1;endArrow=open;edgeStyle=orthogonalEdgeStyle;strokeWidth=2;rounded=0;startArrow=diamondThin;startFill=1;endFill=0;exitX=0.499;exitY=0.985;exitDx=0;exitDy=0;exitPerimeter=0;" parent="WIyWlLk6GJQsqaUBKTNV-1" source="H9WaalQBfB--Xo07i97--29" target="H9WaalQBfB--Xo07i97--7" edge="1">
          <mxGeometry relative="1" as="geometry">
            <mxPoint x="1000" y="790" as="sourcePoint" />
            <mxPoint x="1000" y="980" as="targetPoint" />
          </mxGeometry>
        </mxCell>
        <mxCell id="H9WaalQBfB--Xo07i97--47" value="1" style="resizable=0;html=1;align=left;verticalAlign=top;labelBackgroundColor=none;fontSize=10" parent="H9WaalQBfB--Xo07i97--46" connectable="0" vertex="1">
          <mxGeometry x="-1" relative="1" as="geometry" />
        </mxCell>
        <mxCell id="H9WaalQBfB--Xo07i97--48" value="1" style="resizable=0;html=1;align=right;verticalAlign=top;labelBackgroundColor=none;fontSize=10" parent="H9WaalQBfB--Xo07i97--46" connectable="0" vertex="1">
          <mxGeometry x="1" relative="1" as="geometry">
            <mxPoint x="15" y="-30" as="offset" />
          </mxGeometry>
        </mxCell>
        <mxCell id="LBAPfOwPlszBLF5aJ3Cb-16" value="Use" style="endArrow=open;endSize=12;dashed=1;html=1;rounded=0;exitX=0.458;exitY=1.115;exitDx=0;exitDy=0;exitPerimeter=0;entryX=0.5;entryY=0;entryDx=0;entryDy=0;" edge="1" parent="WIyWlLk6GJQsqaUBKTNV-1" source="lq36NYKIBFTVrX8ykOkN-25" target="LBAPfOwPlszBLF5aJ3Cb-25">
          <mxGeometry width="160" relative="1" as="geometry">
            <mxPoint x="170" y="130" as="sourcePoint" />
            <mxPoint x="120" y="124.03" as="targetPoint" />
          </mxGeometry>
        </mxCell>
        <mxCell id="LBAPfOwPlszBLF5aJ3Cb-25" value="StoreSerializer&lt;div&gt;&lt;br/&gt;&lt;/div&gt;" style="swimlane;fontStyle=1;align=center;verticalAlign=top;childLayout=stackLayout;horizontal=1;startSize=26;horizontalStack=0;resizeParent=1;resizeParentMax=0;resizeLast=0;collapsible=1;marginBottom=0;whiteSpace=wrap;html=1;" vertex="1" parent="WIyWlLk6GJQsqaUBKTNV-1">
          <mxGeometry x="290" y="230" width="180" height="112" as="geometry" />
        </mxCell>
        <mxCell id="LBAPfOwPlszBLF5aJ3Cb-26" value="-FilepathStore: static string" style="text;strokeColor=none;fillColor=none;align=left;verticalAlign=top;spacingLeft=4;spacingRight=4;overflow=hidden;rotatable=0;points=[[0,0.5],[1,0.5]];portConstraint=eastwest;whiteSpace=wrap;html=1;" vertex="1" parent="LBAPfOwPlszBLF5aJ3Cb-25">
          <mxGeometry y="26" width="180" height="26" as="geometry" />
        </mxCell>
        <mxCell id="LBAPfOwPlszBLF5aJ3Cb-27" value="" style="line;strokeWidth=1;fillColor=none;align=left;verticalAlign=middle;spacingTop=-1;spacingLeft=3;spacingRight=3;rotatable=0;labelPosition=right;points=[];portConstraint=eastwest;strokeColor=inherit;" vertex="1" parent="LBAPfOwPlszBLF5aJ3Cb-25">
          <mxGeometry y="52" width="180" height="8" as="geometry" />
        </mxCell>
        <mxCell id="LBAPfOwPlszBLF5aJ3Cb-28" value="+SaveStore(Store): static void" style="text;strokeColor=none;fillColor=none;align=left;verticalAlign=top;spacingLeft=4;spacingRight=4;overflow=hidden;rotatable=0;points=[[0,0.5],[1,0.5]];portConstraint=eastwest;whiteSpace=wrap;html=1;" vertex="1" parent="LBAPfOwPlszBLF5aJ3Cb-25">
          <mxGeometry y="60" width="180" height="26" as="geometry" />
        </mxCell>
        <mxCell id="LBAPfOwPlszBLF5aJ3Cb-33" value="+StoreInfo(ref Store): static void" style="text;strokeColor=none;fillColor=none;align=left;verticalAlign=top;spacingLeft=4;spacingRight=4;overflow=hidden;rotatable=0;points=[[0,0.5],[1,0.5]];portConstraint=eastwest;whiteSpace=wrap;html=1;" vertex="1" parent="LBAPfOwPlszBLF5aJ3Cb-25">
          <mxGeometry y="86" width="180" height="26" as="geometry" />
        </mxCell>
      </root>
    </mxGraphModel>
  </diagram>
</mxfile>
